<svg id="svg" version="1.1" xmlns="http://www.w3.org/2000/svg" xmlns:xlink="http://www.w3.org/1999/xlink" width="400" height="400" viewBox="0, 0, 400,400"><g id="svgg"><path id="path0" d="M0.000 200.000 L 0.000 400.000 200.000 400.000 L 400.000 400.000 400.000 200.000 L 400.000 0.000 200.000 0.000 L 0.000 0.000 0.000 200.000 M161.200 79.792 C 164.907 81.736,283.166 200.125,284.671 203.400 C 286.790 208.010,286.344 213.385,283.494 217.576 C 281.618 220.334,164.134 337.655,161.990 338.910 C 150.186 345.825,136.980 334.278,141.963 321.400 C 142.854 319.098,145.091 316.799,196.846 264.992 C 237.173 224.625,250.800 210.752,250.800 210.066 C 250.800 208.323,249.714 207.199,196.609 154.000 C 136.537 93.821,140.980 98.745,141.023 92.400 C 141.095 81.717,151.943 74.939,161.200 79.792 " stroke="none" fill="#e4e4e4" fill-rule="evenodd"></path><path id="path1" d="M150.933 78.761 C 145.036 80.270,141.068 85.731,141.023 92.400 C 140.980 98.745,136.537 93.821,196.609 154.000 C 249.714 207.199,250.800 208.323,250.800 210.066 C 250.800 210.752,237.173 224.625,196.846 264.992 C 145.091 316.799,142.854 319.098,141.963 321.400 C 136.980 334.278,150.186 345.825,161.990 338.910 C 164.134 337.655,281.618 220.334,283.494 217.576 C 286.344 213.385,286.790 208.010,284.671 203.400 C 283.166 200.125,164.907 81.736,161.200 79.792 C 158.846 78.558,153.733 78.045,150.933 78.761 " stroke="none" fill="#272636" fill-rule="evenodd"></path></g></svg>